PathFileType	4	(X/Y/Z)	Patient4_TMGait_0pt5_02_right_40.trc.trc
DataRate	CameraRate	NumFrames	NumMarkers	Units	OrigDataRate	OrigDataStartFrame	OrigNumFrames
78.212290502793	78.212290502793	6	33	mm	78.212290502793	18	       141
Frame#	Time	Sacral			L.Shoulder			Chest			R.Shoulder			Neck			R.ASIS			L.ASIS			R.Thigh.Superior			R.Thigh.Lateral			R.Thigh.Inferior			R.Patella			L.Thigh.Superior			L.Thigh.Lateral			L.Thigh.Inferior			L.Patella			L.Shank.Superior			L.Shank.Lateral			L.Shank.Inferior			R.Shank.Superior			R.Shank.Lateral			R.Shank.Inferior			R.Heel			R.Midfoot.Superior			R.Midfoot.Lateral			R.Toe			L.Heel			L.Midfoot.Lateral			L.Midfoot.Superior			L.Toe			L.Elbow			L.Wrist			R.Elbow			R.Wrist			
		X1	Y1	Z1	X2	Y2	Z2	X3	Y3	Z3	X4	Y4	Z4	X5	Y5	Z5	X6	Y6	Z6	X7	Y7	Z7	X8	Y8	Z8	X9	Y9	Z9	X10	Y10	Z10	X11	Y11	Z11	X12	Y12	Z12	X13	Y13	Z13	X14	Y14	Z14	X15	Y15	Z15	X16	Y16	Z16	X17	Y17	Z17	X18	Y18	Z18	X19	Y19	Z19	X20	Y20	Z20	X21	Y21	Z21	X22	Y22	Z22	X23	Y23	Z23	X24	Y24	Z24	X25	Y25	Z25	X26	Y26	Z26	X27	Y27	Z27	X28	Y28	Z28	X29	Y29	Z29	X30	Y30	Z30	X31	Y31	Z31	X32	Y32	Z32	X33	Y33	Z33	

18	52.487357142857	702.967931746092	1012.893659829771	425.026082793889	924.390020144039	1433.864890665861	263.328290686460	1001.048477095688	1355.330603810660	435.042037281637	900.451578739386	1434.241398541571	598.127420180951	909.444400658354	1493.578529846342	413.427875445346	915.563841215996	945.095658340843	565.412259473176	928.436064390810	956.658019709074	289.705635325908	988.471608475111	770.700878194146	543.499024761174	938.539700567497	652.132991048599	616.016784937672	1028.999161068984	611.384905051778	539.220974545145	1061.950815426752	531.866651589738	556.638658970022	940.256545195992	733.704161437486	328.276864108605	836.345285660881	632.856063435570	259.730528999023	894.230548394280	544.264680493973	333.213516710581	880.106265938931	476.902574875017	344.096398904568	849.749151806942	409.045230557280	333.620299806851	754.367951136939	301.835001468467	279.780780179127	788.214082678767	189.112207050656	356.877034015759	1051.080579007404	445.407398341164	566.960717646258	1005.281808372496	329.537651560169	631.444417559115	1080.162736640251	247.469886735591	580.701939691891	998.780108997695	55.140690440460	552.578799368068	1156.618397826623	136.514590629835	591.814654361703	1084.124882813326	55.593214787229	625.293064522792	1284.195233371278	107.070224829618	616.664786780725	647.486983233880	38.810676454374	395.267310729686	722.316023454413	35.421769686541	315.666110993413	805.839005840533	95.706098171209	343.941166909750	934.265173139536	40.863149219930	316.262017670725	985.706093129829	1111.647473459295	99.268941886515	1239.051532612787	1075.413937636605	117.691411398615	739.085109997384	1128.977773819493	702.631241703918	709.228580076613	869.419564313151	711.469637658299	
19	52.500142857143	704.240656602111	1011.551391898431	426.605699655456	924.404936333991	1432.903418256054	265.326165645994	1000.825693147780	1354.856479303362	437.326311214495	899.574052717177	1433.694867748014	600.007081931771	908.797773360387	1492.679223667070	415.301619642430	916.415832385429	943.576435563299	567.564733204110	929.712353766904	955.767436822114	291.919551175631	988.228080963667	768.025414802344	546.091846887333	936.059648061937	648.991896887522	616.703642858500	1027.253659442174	608.404375981041	540.912624116661	1058.766720169410	528.741849612881	557.191553996543	939.388873658863	732.120366782750	329.855901216122	834.296810510856	632.440549847792	260.585512200345	890.789713537977	543.121338626361	333.985410709139	875.914890852263	475.958449612785	344.693561801123	845.225739475601	408.362392511737	334.125347257291	749.267124337041	301.784581680680	280.010767328099	782.297839065578	188.766649988186	356.997361428297	1047.776696519937	441.969327425327	566.807246565150	1001.007024965777	325.970509274558	630.011324997762	1075.948740335782	244.037442790617	579.287918159854	994.097703181197	52.700699076903	549.446420067873	1152.039943751777	132.853003609854	590.089509445216	1078.833580150584	52.502193797988	622.723134072742	1279.042165310512	102.590731005686	615.401325792365	641.015725080065	38.770585723925	395.274204005657	715.841338536825	35.369943351902	315.688109492344	799.360791707578	95.664545580818	343.975053859740	927.769193095052	40.833537789263	316.311608658803	987.643825895054	1111.400913349619	101.198674089845	1241.462929344982	1081.398168136917	120.690907109858	733.696947998472	1131.056294542091	702.647889861767	699.375763189192	871.988749918774	711.145672613527	
20	52.512928571429	705.679046241253	1010.052015132926	428.409054236750	924.340374880418	1431.820620364056	267.445859517979	1000.616520673033	1354.348856951299	439.723696286344	898.686634118459	1433.024746612867	602.031445392202	908.062881464167	1491.679406429774	417.305237494569	917.555631518073	941.942967109030	569.812348607162	931.195217758225	954.823288266896	294.230582077803	988.601421388001	765.410941194825	548.583054844322	934.193840040237	645.841291994077	617.071472154670	1026.110046402008	605.514346609984	542.265544981780	1056.030692190859	525.329703721002	557.282682035743	938.712227754632	730.469421703419	331.370777844543	832.383106036387	631.949580904277	261.540492137140	887.624581828550	541.923926427820	334.758092630422	872.051188385131	474.888888091238	345.322511202919	840.936158876071	407.580942667287	334.682525870477	744.276557608324	301.731238067086	280.297325406726	776.437067975234	188.371236930807	357.127704929863	1044.398338171949	438.070677443344	566.237362208112	995.943037316392	322.334194244300	628.340175011370	1070.119457411885	239.989148093212	577.500367074051	986.204641388159	50.505620707678	546.482138245586	1144.991441373825	128.214622842027	587.835413563275	1070.514213673489	49.260897099335	620.128041123231	1271.208567836133	96.141116153698	613.352618075696	634.535919669877	38.693642287734	395.271689654304	709.364883449692	35.294350723640	315.711226914550	792.877535947484	95.616991543899	344.004635606683	921.279900473115	40.796570689316	316.346468038261	989.175995993467	1110.803471791467	103.434209107231	1243.310902558616	1086.318688249973	123.871988411780	729.353481195497	1132.443697935690	702.810967968969	691.269240558399	873.803363423785	710.714021405524	
21	52.525714285714	707.237258847310	1008.433107789282	430.421040620067	924.223842424729	1430.634820833343	269.690699928005	1000.445177386730	1353.802762161894	442.230649461331	897.827317728700	1432.226855897315	604.207905344004	907.289456655965	1490.596988510615	419.448074548518	918.968924383825	940.229763953234	572.117158997559	932.830471549925	953.836344148857	296.610447656864	989.540408155755	762.832929102293	550.889785671542	932.943902001943	642.760311269187	617.175837374978	1025.466426303022	602.721451388429	543.214070967498	1053.684630616596	521.717787490100	556.887965443292	938.235904996472	728.775880354296	332.801134616379	830.632185526351	631.381439592805	262.615481806185	884.793928541598	540.678935523567	335.557882335960	868.595603166750	473.678323115831	346.012049712348	836.940898652344	406.690867151154	335.318805525358	739.438985195438	301.682931081072	280.662852089453	770.652568144538	187.927172481070	357.282011420281	1041.038209306743	433.873175725088	565.309925027421	990.441431457427	318.709104345516	626.571162667391	1063.171723417280	235.522931198437	575.440543349486	975.956647887904	48.513226378061	543.855552308163	1136.164219309908	122.962696179469	585.172897656260	1060.048663621404	46.045562521591	617.662262054313	1261.503117958224	88.377690030768	610.638937966861	628.044462467431	38.595572143321	395.251583024710	702.890412894664	35.200882791789	315.732929730749	786.398268567689	95.565059069894	344.029653194884	914.805588600408	40.748233426633	316.363224778175	990.290871061143	1109.847177439427	105.971159370751	1244.626465272444	1090.120909842299	127.219372839526	726.064600595661	1133.092116029413	703.171919999514	684.926373497706	874.798587724067	710.249643022276	
22	52.538500000000	708.859105282485	1006.749028589136	432.617154871287	924.081464210594	1429.385547426695	272.062097523877	1000.333548131384	1353.227132246902	444.839794580199	897.037883915951	1431.315654600830	606.541924384449	906.533431943024	1489.467754341753	421.738413368015	920.622621522017	938.492676684681	574.440280121221	934.552148596169	952.831795101202	299.030759388023	990.961198170428	760.300358282568	552.928082437218	932.308912855569	639.854652666922	617.092536883749	1025.218593079986	600.065468933750	543.714781047581	1051.687604995136	518.038763208621	556.035312344780	937.977375182388	727.080734535913	334.147880977227	829.095752179298	630.740889106693	263.836481598918	882.377803401848	539.401050798551	336.426198827304	865.651747792386	472.318197813193	346.797205367133	833.316697831873	405.688794219185	336.065305572738	734.814937542130	301.659957597655	281.131359738350	764.976908925447	187.446639794592	357.472773220884	1037.809696954646	429.587321883726	564.114323013814	984.884933862631	315.216706659416	624.850912584870	1055.652720812184	230.900776128937	573.229630184098	964.306832640209	46.729372756940	541.681192224636	1126.295456181738	117.528667946603	582.266154733839	1048.378947120107	43.062990325517	615.458813636529	1250.766786085855	80.056258633197	607.479654686300	621.542008232300	38.515839434046	395.204259055418	696.425041435749	35.107062561301	315.749428771315	779.941638009047	95.513838096935	344.046743638438	908.357503222041	40.681713654677	316.358581654794	990.973465567504	1108.545201025971	108.804833029655	1245.431687649005	1092.758512098201	130.720276835855	723.836862555274	1132.986533756136	703.771233435707	680.358844021299	874.946044227079	709.829942052573	
23	52.551285714286	710.482047624357	1005.070114406093	434.964976151048	923.936983750654	1428.133340898131	274.557965726873	1000.298715159040	1352.645808353429	447.539287067338	896.359591861104	1430.326073767111	609.034196206042	905.852088028584	1488.344488228524	424.180950315817	922.464519096704	936.806787721440	576.747624415747	936.286121573119	951.850751960444	301.465519379862	992.756122224250	757.865171832403	554.623557680460	932.285302271711	637.247289575143	616.908014055937	1025.275151239453	597.620092542040	543.757891065724	1050.026614844383	514.460179390298	554.807576485196	937.961073440146	725.441926799651	335.433516545019	827.849335280062	630.039047865876	265.231856022772	880.480031285697	538.113518876937	337.413003600621	863.347180815765	470.808909514076	347.711473817842	830.158378457580	404.579575399704	336.950909779273	730.483751264498	301.696834782772	281.724991256543	759.457465260294	186.955264835919	357.708039188447	1034.837820950548	425.446786056476	562.762575297768	979.645134152168	312.002306774005	623.321015019446	1048.095563105580	226.408300999531	570.999689603780	952.186326101745	45.188601331434	540.014217064996	1116.086828742156	112.342212900966	579.309597826975	1036.396690231753	40.501663131312	613.617099758663	1239.781581848273	71.920542099952	604.159816427040	615.036068393929	38.523535879892	395.119808238479	689.980309648338	35.045750536158	315.755954591561	773.538527768276	95.472885759349	344.048602038503	901.949117312673	40.587744372761	316.329630029426	991.205060457728	1106.934724465340	111.930853644934	1245.738767779147	1094.194101009498	134.363199360085	722.674604735884	1132.146525485396	704.636539800543	677.577993036094	874.254810908980	709.528603263979	
